# xmcd
# 
# Track frame offsets:
#     150
#     20407
#     36437
#     56405
#     73500
#     102352
#     122777
#     143635
#     159470
#     181877
#     204070
#     222010
# 
# Disc length: 3246
# 
# Revision: 4
# Processed by: cddbd v1.5.2PL0 Copyright (c) Steve Scherf et al.
# Submitted via: fre:ac v1.0.27
# 
DISCID=a00cac0c
DTITLE=曾慶瑜 - 歷年精選
DYEAR=1990
DGENRE=POP
TTITLE0=今夕是何夕
TTITLE1=Lonely As The Night Is Long
TTITLE2=玩偶
TTITLE3=愛上你是我一生的錯
TTITLE4=Don't Cry For Me Argentina
TTITLE5=Something's Gotten Hold Of My Heart
TTITLE6=隨風而逝
TTITLE7=A Love Song
TTITLE8=Looking Through The Eyes Of Love
TTITLE9=愛上別離
TTITLE10=誰最愛你
TTITLE11=How Do I Stop Loving You
EXTD=
EXTT0=
EXTT1=
EXTT2=
EXTT3=
EXTT4=
EXTT5=
EXTT6=
EXTT7=
EXTT8=
EXTT9=
EXTT10=
EXTT11=
PLAYORDER=
